# Blender 4.5.5 LTS
# www.blender.org
mtllib EVE_Xmas.mtl
o EVE_Xmas
v -1.873535 5.841553 -2.116211
v -1.880615 5.744873 -1.979737
v -2.076172 5.910889 -2.077881
v -2.083496 5.814209 -1.941163
v -2.129150 5.760254 -2.084473
v -1.926270 5.690918 -2.122803
v -2.076172 5.910889 -2.077881
v -1.873535 5.841553 -2.116211
v 1.089111 6.374268 -2.722657
v 0.987793 6.525391 -2.603028
v 0.943359 6.333984 -2.794678
v 0.842285 6.484863 -2.674805
v 0.892578 6.412842 -2.541504
v 0.993652 6.261963 -2.661133
v 1.089111 6.374268 -2.722657
v 0.987793 6.525391 -2.603028
v 1.564453 3.202637 1.548584
v 1.687256 3.305176 1.597656
v 1.634033 3.051514 1.688965
v 1.757080 3.154297 1.738281
v 1.777100 3.051270 1.617676
v 1.707275 3.202148 1.477295
v 1.634033 3.051514 1.688965
v 1.564453 3.202637 1.548584
v 2.920166 6.409912 -0.731446
v 2.721191 6.469971 -0.666749
v 2.900635 6.497803 -0.872803
v 2.701660 6.557861 -0.808106
v 2.658691 6.404541 -0.798340
v 2.857666 6.344482 -0.863038
v 2.721191 6.469971 -0.666749
v 2.920166 6.409912 -0.731446
v -2.570068 6.220947 1.406738
v -2.503174 6.361328 1.468505
v -2.669678 6.184570 1.596679
v -2.602783 6.324951 1.658691
v -2.528076 6.184326 1.670898
v -2.428711 6.220703 1.480712
v -2.570068 6.220947 1.406738
v -2.669678 6.184570 1.596679
v -0.701416 2.001465 -1.824951
v -0.693115 2.153320 -1.895264
v -0.737305 1.912842 -2.020264
v -0.729004 2.064453 -2.090821
v -0.867188 2.004150 -2.038086
v -0.831299 2.092773 -1.842529
v -0.737305 1.912842 -2.020264
v -0.701416 2.001465 -1.824951
v 1.769043 2.618164 -1.259766
v 1.864990 2.732178 -1.336426
v 1.841064 2.465576 -1.397217
v 1.937012 2.579590 -1.473633
v 1.787109 2.551025 -1.520752
v 1.714844 2.703857 -1.383301
v 1.769043 2.618164 -1.259766
v 1.841064 2.465576 -1.397217
v -2.009277 1.595703 -0.428955
v -1.840332 1.668213 -0.312500
v -2.058594 1.753418 -0.455567
v -1.889648 1.825928 -0.338867
v -1.940918 1.742188 -0.212891
v -2.109863 1.669678 -0.329346
v -1.840332 1.668213 -0.312500
v -2.009277 1.595703 -0.428955
v -1.716309 3.732422 1.906250
v -1.543213 3.857422 1.863525
v -1.765625 3.840821 2.023926
v -1.592773 3.965821 1.981201
v -1.495850 3.843750 2.015381
v -1.668701 3.718506 2.058105
v -1.543213 3.857422 1.863525
v -1.716309 3.732422 1.906250
v -0.426270 2.119873 2.267822
v -0.523682 2.192383 2.087158
v -0.305420 2.234131 2.248291
v -0.402588 2.306641 2.067627
v -0.391602 2.160889 2.003174
v -0.294189 2.088379 2.183838
v -0.523682 2.192383 2.087158
v -0.426270 2.119873 2.267822
v -1.565918 4.024658 -2.053467
v -1.708984 4.044434 -1.968506
v -1.663330 3.880859 -2.184326
v -1.806396 3.900390 -2.099365
v -1.698975 3.789795 -2.057862
v -1.601318 3.933838 -1.927002
v -1.663330 3.880859 -2.184326
v -1.565918 4.024658 -2.053467
v 0.759521 3.835693 -2.391602
v 0.689209 3.722168 -2.290528
v 0.759521 3.690918 -2.554199
v 0.689209 3.577392 -2.453125
v 0.847656 3.736328 -2.303223
v 0.847900 3.591552 -2.465576
v 0.759521 3.690918 -2.554199
v 0.759521 3.835693 -2.391602
v 2.555176 4.450928 -0.892334
v 2.492676 4.443359 -1.047364
v 2.717773 4.318848 -0.951416
v 2.655029 4.311279 -1.106446
v 2.611572 4.207031 -0.993409
v 2.448975 4.339355 -0.934326
v 2.717773 4.318848 -0.951416
v 2.555176 4.450928 -0.892334
v -1.716553 4.833496 2.300292
v -1.541016 4.930176 2.215820
v -1.621582 4.705322 2.351318
v -1.445801 4.802246 2.266601
v -1.515381 4.802734 2.123046
v -1.690918 4.706055 2.207519
v -1.716553 4.833496 2.300292
v -1.541016 4.930176 2.215820
v 1.255859 4.324707 2.284424
v 1.250000 4.241211 2.139160
v 1.396973 4.178711 2.362549
v 1.391113 4.095215 2.217529
v 1.290527 4.062256 2.337158
v 1.149414 4.208252 2.259033
v 1.255859 4.324707 2.284424
v 1.396973 4.178711 2.362549
v 2.893555 5.787842 0.061767
v 2.855957 6.155273 0.252929
v 2.981689 6.211914 -0.425782
v 2.937012 6.559082 -0.296143
v 2.542236 6.808105 -1.289795
v 2.504395 6.455078 -1.400879
v 1.893311 6.853027 -2.151856
v 1.818604 6.499023 -2.234131
v 0.997070 6.765869 -2.716797
v 0.973145 6.396973 -2.697510
v -0.572021 6.458984 -2.827149
v -0.503906 6.097412 -2.830811
v -1.838623 5.762451 -2.383301
v -1.885498 6.087646 -2.207276
v -2.507324 5.506836 -1.488037
v -2.600830 5.828857 -1.306641
v -2.846436 5.199951 -0.267090
v -2.878418 5.516357 -0.161377
v -2.038574 5.092041 0.698242
v -2.020752 4.786621 0.497558
v -2.128174 4.536377 1.562988
v -2.069580 4.117432 1.442382
v -1.567139 3.945557 2.050049
v -1.608154 3.678223 1.817138
v -0.768555 3.469727 2.369140
v -0.845947 3.148682 2.249267
v 0.281738 3.141114 2.319824
v 0.160645 2.826905 2.250732
v 1.162109 2.694580 1.849853
v 1.289307 2.983887 1.958740
v 1.747803 2.662598 1.284668
v 1.851807 2.958008 1.347656
v 1.885254 2.957031 0.398437
v 1.850830 2.663330 0.409668
v 2.329834 2.653320 -0.210938
v 2.387695 2.936523 -0.250488
v 2.855957 6.155273 0.252929
v 2.893555 5.787842 0.061767
v 2.055176 5.346191 0.472656
v 2.175537 4.930420 0.572021
v 2.229980 5.188721 1.629638
v 2.170410 4.805664 1.641113
v 2.229980 5.188721 1.629638
v 2.170410 4.805664 1.641113
v 1.811523 4.878662 2.031494
v 1.843750 4.520508 1.947021
v 1.017090 4.420166 2.335693
v 1.131836 4.091553 2.215332
v 0.127197 4.257324 2.526367
v 0.079590 3.911621 2.443603
v -0.932861 4.242188 2.377441
v -0.791992 4.540283 2.533203
v -1.586182 4.805176 2.228027
v -1.420410 5.084473 2.405273
v -2.074951 5.403076 1.976806
v -1.912598 5.687988 2.128906
v -2.516357 6.202881 1.456054
v -2.382080 6.497803 1.530517
v -2.899902 6.375000 0.514404
v -2.918213 6.697754 0.497558
v -2.841064 6.104004 -0.523682
v -2.867676 5.802490 -0.347901
v -2.678467 5.304443 -1.257569
v -2.738770 5.004395 -1.053955
v -2.228516 4.509033 -1.843750
v -2.288086 4.216553 -1.620362
v -1.384277 4.009766 -2.225586
v -1.488770 3.670898 -2.109864
v -0.427979 3.475830 -2.377198
v -0.378174 3.832519 -2.466065
v 0.651367 3.519043 -2.419922
v 0.702148 3.871582 -2.490723
v 1.595215 3.754638 -2.040528
v 1.596191 4.101562 -2.061035
v 2.331299 4.108398 -1.452637
v 2.360840 4.438721 -1.441895
v 2.799561 4.339355 -0.329102
v 2.878906 4.657471 -0.317383
v 2.087891 4.389404 0.639160
v 1.943115 4.126953 0.505859
v 1.996338 3.654541 1.459961
v 1.915771 3.283447 1.402099
v 1.498779 3.213867 1.883545
v 1.563965 2.957520 1.684082
v 0.633789 2.483643 2.093506
v 0.561035 2.717285 2.311523
v -0.324707 2.083252 2.045410
v -0.484375 2.312744 2.185058
v -1.180664 1.790283 1.490478
v -1.311768 2.045166 1.495605
v -1.587402 1.712647 1.039062
v -1.636963 1.968994 1.095947
v -1.636963 1.968994 1.095947
v -1.587402 1.712647 1.039062
v -1.680420 1.893311 0.534912
v -1.616455 1.635498 0.546142
v -1.860352 1.609619 0.030273
v -1.980225 1.869141 -0.073975
v -1.860352 1.609619 0.030273
v -1.867188 1.584961 -0.501221
v -1.980225 1.869141 -0.073975
v -1.985352 1.855225 -0.541016
v -1.336182 1.710449 -1.437012
v -1.414062 2.005615 -1.537842
v -0.590332 1.989014 -1.908203
v -0.718506 2.282226 -1.987061
v 0.397217 2.270508 -2.072266
v 0.399658 2.587890 -2.159668
v 1.373535 2.521972 -1.744629
v 1.422852 2.808838 -1.853028
v 2.161377 2.917480 -1.066895
v 2.177490 2.631348 -1.027832
v 2.387695 2.936523 -0.250488
v 2.329834 2.653320 -0.210938
v -2.076660 5.905762 -2.074219
v -2.083252 5.816162 -1.947266
v -2.221924 6.000244 -2.072510
v -2.233154 5.849121 -1.858643
v -2.125732 5.766113 -2.080323
v -2.304443 5.764648 -2.083008
v -2.221924 6.000244 -2.072510
v -2.076660 5.905762 -2.074219
v 1.083252 6.372070 -2.723389
v 0.947998 6.334473 -2.790284
v 1.204346 6.281494 -2.808106
v 0.976318 6.218262 -2.920899
v 0.994629 6.267578 -2.666504
v 1.054932 6.105469 -2.712159
v 1.204346 6.281494 -2.808106
v 1.083252 6.372070 -2.723389
v 1.639404 3.054932 1.688965
v 1.753662 3.150147 1.734619
v 1.646240 2.918701 1.795898
v 1.838867 3.079102 1.872802
v 1.875732 2.750000 1.985595
v 1.870117 2.917969 1.684082
v 1.646240 2.918701 1.795898
v 1.772217 3.054688 1.622802
v 1.639404 3.054932 1.688965
v 2.918213 6.411865 -0.737305
v 2.900146 6.493408 -0.868409
v 3.082520 6.356934 -0.738282
v 3.052002 6.494629 -0.959229
v 2.860107 6.350830 -0.859375
v 2.984619 6.254150 -0.944092
v 3.082520 6.356934 -0.738282
v 2.918213 6.411865 -0.737305
v -2.665527 6.188721 1.599121
v -2.603271 6.319092 1.656494
v -2.775391 6.131592 1.720214
v -2.670654 6.351318 1.817138
v -2.534180 6.188477 1.667724
v -2.553955 6.131104 1.836181
v -2.775391 6.131592 1.720214
v -2.665527 6.188721 1.599121
v -0.738770 1.918701 -2.022217
v -0.731201 2.059570 -2.087403
v -0.749268 1.806396 -2.153565
v -0.736328 2.043945 -2.263916
v -0.859375 2.003418 -2.038574
v -0.952637 1.949219 -2.181153
v -0.749268 1.806396 -2.153565
v -0.738770 1.918701 -2.022217
v 1.843018 2.470459 -1.400635
v 1.931885 2.576172 -1.471680
v 1.885498 2.318115 -1.471436
v 2.035400 2.496582 -1.591309
v 2.007324 2.195068 -1.766602
v 1.800537 2.451904 -1.665039
v 1.885498 2.318115 -1.471436
v 1.792725 2.549805 -1.515381
v 1.843018 2.470459 -1.400635
v -2.011719 1.601562 -0.427979
v -2.057617 1.748047 -0.452637
v -2.115479 1.502686 -0.525391
v -2.192871 1.749756 -0.566895
v -2.104980 1.670166 -0.335693
v -2.272949 1.618652 -0.369385
v -2.115479 1.502686 -0.525391
v -2.011719 1.601562 -0.427979
v -1.716553 3.735596 1.911865
v -1.762451 3.836182 2.020996
v -1.844482 3.619629 1.897949
v -1.921875 3.789307 2.082031
v -1.672363 3.722901 2.052734
v -1.770020 3.597901 2.135742
v -1.844482 3.619629 1.897949
v -1.716553 3.735596 1.911865
v -0.421143 2.123047 2.265625
v -0.308838 2.228760 2.247558
v -0.391357 2.048340 2.419189
v -0.201904 2.227051 2.388672
v -0.128418 1.982422 2.627929
v -0.184570 1.998779 2.287842
v -0.391357 2.048340 2.419189
v -0.298584 2.093750 2.187744
v -0.421143 2.123047 2.265625
v -1.667725 3.880615 -2.179688
v -1.800537 3.898681 -2.100830
v -1.706787 3.779785 -2.315186
v -1.930664 3.810547 -2.182373
v -1.700684 3.796142 -2.062500
v -1.762451 3.637451 -2.117432
v -1.706787 3.779785 -2.315186
v -1.667725 3.880615 -2.179688
v 0.758789 3.686523 -2.549561
v 0.693359 3.581299 -2.455811
v 0.760986 3.614258 -2.707031
v 0.650879 3.436767 -2.548828
v 0.840576 3.594238 -2.467285
v 0.899170 3.458740 -2.568360
v 0.760986 3.614258 -2.707031
v 0.758789 3.686523 -2.549561
v 2.713867 4.317383 -0.956299
v 2.655762 4.310303 -1.100342
v 2.865967 4.234375 -0.962647
v 2.767822 4.222412 -1.205567
v 2.615479 4.213623 -0.995362
v 2.699707 4.059326 -1.028565
v 2.865967 4.234375 -0.962647
v 2.713867 4.317383 -0.956299
v -1.712891 4.828125 2.300292
v -1.624756 4.709229 2.347656
v -1.870361 4.799561 2.367187
v -1.721436 4.599121 2.447021
v -1.689209 4.709961 2.214111
v -1.830322 4.600098 2.221924
v -1.870361 4.799561 2.367187
v -1.712891 4.828125 2.300292
v 1.394775 4.174805 2.357910
v 1.389404 4.097412 2.223144
v 1.518555 4.097900 2.451416
v 1.509521 3.967285 2.224365
v 1.296143 4.066895 2.334228
v 1.352051 3.915528 2.411621
v 1.518555 4.097900 2.451416
v 1.394775 4.174805 2.357910
v -2.542969 5.979492 -1.956055
v 1.233154 5.989258 -2.983887
v 3.328125 6.279541 -0.963379
v -2.816406 6.145508 2.059570
v -0.861572 1.795898 -2.476807
v -2.431885 1.510010 -0.656006
v -2.092773 3.484131 2.090576
v -1.932373 3.536865 -2.400635
v 0.771729 3.302978 -2.848877
v 3.017090 3.985107 -1.141846
v -2.065186 4.536377 2.466552
v 1.666016 3.790528 2.482666
vn 0.2137 0.8706 -0.4432
vn 0.1336 -0.1336 0.9820
vn -0.7577 -0.5525 0.3473
vn 0.4032 0.7036 0.5851
vn -0.3632 -0.7501 -0.5527
vn 0.2138 0.8705 -0.4432
vn 0.8401 0.5419 0.0236
vn -0.6781 0.1183 -0.7254
vn 0.8402 0.5418 0.0235
vn 0.3402 -0.1662 -0.9256
vn -0.1654 -0.6774 0.7168
vn 0.8402 0.5418 0.0236
vn -0.9334 -0.3481 0.0871
vn -0.9334 -0.3481 0.0870
vn 0.3479 0.7196 0.6009
vn 0.4033 0.7036 0.5851
vn 0.4032 0.7037 0.5850
vn 0.6008 -0.3795 -0.7036
vn 0.2918 -0.0631 0.9544
vn 0.0866 0.8501 -0.5195
vn 0.2919 -0.0631 0.9544
vn -0.1582 -0.4667 -0.8702
vn -0.4163 0.8955 0.1571
vn -0.4163 0.8956 0.1571
vn -0.3867 -0.8050 -0.4499
vn -0.7359 -0.4827 -0.4748
vn -0.0315 0.9857 0.1656
vn -0.1582 -0.4667 -0.8701
vn 0.5765 -0.4422 0.6871
vn 0.7946 -0.5193 0.3147
vn 0.7946 -0.5192 0.3147
vn 0.5765 -0.4423 0.6871
vn 0.4360 -0.8481 0.3012
vn 0.5231 0.7370 -0.4280
vn -0.4164 0.8955 0.1572
vn 0.5231 0.7371 -0.4279
vn -0.4165 0.8954 0.1572
vn -0.9858 0.1104 0.1262
vn 0.4359 -0.8481 0.3012
vn -0.1346 -0.6967 0.7046
vn -0.1346 -0.6967 0.7047
vn 0.8679 0.4892 -0.0868
vn -0.5501 -0.7938 0.2594
vn 0.5941 0.4277 0.6812
vn -0.5501 -0.7938 0.2593
vn -0.7524 0.2059 -0.6257
vn -0.0551 0.3463 -0.9365
vn -0.1346 -0.6968 0.7045
vn 0.5289 -0.8051 -0.2684
vn 0.0079 0.8404 -0.5419
vn 0.0078 0.8404 -0.5419
vn -0.5598 -0.0316 0.8280
vn 0.5289 -0.8052 -0.2684
vn 0.5288 -0.8052 -0.2684
vn 0.0001 -0.3232 -0.9463
vn -0.5129 0.8128 0.2762
vn -0.0000 -0.3233 -0.9463
vn 0.5941 0.4278 0.6812
vn 0.5293 -0.4977 0.6872
vn 0.5292 -0.4977 0.6872
vn 0.0001 -0.3233 -0.9463
vn -0.8903 -0.2757 0.3624
vn 0.3708 0.9152 0.1578
vn 0.5274 -0.6533 -0.5431
vn 0.5274 -0.6533 -0.5432
vn -0.8903 -0.2758 0.3624
vn 0.6164 0.2608 -0.7430
vn -0.8741 0.4646 0.1418
vn 0.9100 -0.3086 0.2769
vn -0.0712 0.7438 -0.6646
vn -0.8741 0.4646 0.1417
vn 0.9100 -0.3086 0.2770
vn 0.2608 -0.7429 0.6165
vn 0.6165 0.2608 -0.7429
vn -0.0712 0.7437 -0.6647
vn -0.8134 -0.4343 0.3870
vn -0.8134 -0.4343 0.3869
vn 0.9857 0.0315 0.1656
vn 0.9857 0.0316 0.1655
vn 0.9857 0.0316 0.1656
vn 0.6789 -0.2131 -0.7026
vn 0.9707 -0.0947 -0.2210
vn 0.7879 0.0394 -0.6145
vn 0.7879 0.0394 -0.6146
vn 0.1741 0.0870 -0.9809
vn -0.5050 0.2131 -0.8364
vn -0.8594 0.1498 -0.4888
vn -0.8594 0.1498 -0.4889
vn -0.9981 -0.0472 -0.0393
vn 0.3539 -0.3146 -0.8808
vn -0.8963 -0.2673 0.3538
vn -0.8963 -0.2673 0.3537
vn -0.5750 -0.3308 0.7483
vn -0.5750 -0.3308 0.7482
vn -0.0552 -0.2681 0.9618
vn -0.0551 -0.2680 0.9618
vn 0.5837 -0.4339 0.6863
vn 0.9297 -0.2443 0.2758
vn 0.9297 -0.2442 0.2758
vn 0.7903 -0.0711 0.6086
vn 0.9857 0.0315 0.1655
vn 0.8692 -0.1106 0.4820
vn 0.9960 0.0632 -0.0632
vn 0.7239 -0.0866 0.6845
vn 0.6319 -0.3870 0.6715
vn 0.7238 -0.0866 0.6845
vn 0.6319 -0.3871 0.6714
vn 0.6319 -0.3870 0.6714
vn 0.2847 -0.5852 0.7593
vn 0.2847 -0.5852 0.7592
vn -0.3801 -0.3881 -0.8396
vn -0.5186 -0.2514 0.8172
vn -0.5186 -0.2515 0.8172
vn -0.5361 -0.1655 0.8278
vn -0.8919 0.1263 0.4342
vn -0.8920 0.1263 0.4341
vn -0.9985 -0.0000 -0.0551
vn -0.8721 -0.1571 -0.4635
vn -0.8720 -0.1572 -0.4636
vn -0.6151 -0.4022 -0.6782
vn -0.6151 -0.4021 -0.6782
vn -0.7690 -0.3172 -0.5550
vn -0.0000 -0.6063 -0.7953
vn 0.3547 -0.5597 -0.7489
vn 0.8796 -0.4121 -0.2377
vn 0.8796 -0.4120 -0.2377
vn -0.7690 -0.3171 -0.5550
vn 0.8906 -0.4492 -0.0709
vn 0.6406 -0.3243 0.6960
vn 0.6407 -0.3243 0.6960
vn -0.7691 -0.3172 -0.5549
vn 0.5436 -0.4491 0.7091
vn -0.4107 -0.4818 0.7741
vn -0.4107 -0.4818 0.7740
vn -0.4108 -0.4818 0.7741
vn -0.6884 -0.3244 0.6488
vn -0.9707 -0.2210 0.0947
vn -0.7958 -0.3230 0.5121
vn -0.7959 -0.3230 0.5121
vn -0.8755 -0.2130 0.4338
vn -0.9152 -0.4024 0.0237
vn 0.4817 0.7423 -0.4659
vn 0.1501 0.8920 -0.4263
vn 0.4581 -0.2212 0.8609
vn 0.6005 -0.6952 0.3950
vn 0.4434 0.6571 0.6096
vn -0.7433 -0.5614 0.3638
vn 0.0788 -0.0945 0.9924
vn 0.0079 -0.8121 -0.5834
vn -0.3880 -0.7364 -0.5543
vn 0.3871 -0.1975 -0.9006
vn 0.1499 0.8921 -0.4263
vn 0.4816 0.7423 -0.4659
vn 0.6640 0.7273 0.1739
vn 0.8677 0.4970 -0.0079
vn -0.7885 0.3627 -0.4968
vn -0.6385 0.0867 -0.7647
vn -0.3159 -0.3632 0.8765
vn -0.1424 -0.6959 0.7038
vn -0.8262 -0.4563 0.3305
vn -0.4649 0.8666 0.1812
vn -0.1901 -0.4674 -0.8634
vn 0.8678 0.4969 -0.0079
vn 0.6640 0.7272 0.1739
vn -0.9874 -0.1264 -0.0947
vn -0.9102 -0.3922 0.1334
vn 0.1975 0.9166 0.3477
vn 0.3541 0.6768 0.6454
vn 0.3390 -0.7253 0.5992
vn 0.6018 -0.4039 -0.6890
vn -0.9101 -0.3923 0.1334
vn 0.4262 -0.0947 -0.8997
vn -0.9874 -0.1264 -0.0948
vn 0.0079 0.0236 0.9997
vn 0.3483 -0.0792 0.9340
vn -0.2205 0.9056 -0.3622
vn 0.5207 -0.4497 0.7258
vn 0.1504 0.8392 -0.5226
vn -0.7033 -0.6480 -0.2924
vn -0.3629 -0.8205 -0.4418
vn -0.4648 0.8666 0.1812
vn -0.5766 -0.4028 -0.7109
vn -0.7683 -0.4831 -0.4198
vn 0.1023 0.9835 -0.1495
vn 0.7179 -0.6547 -0.2367
vn 0.6446 0.3852 0.6604
vn -0.5266 -0.8096 0.2594
vn -0.0786 0.9741 0.2121
vn 0.9047 -0.4248 -0.0315
vn 0.7814 -0.5288 0.3315
vn -0.0000 0.3162 -0.9487
vn -0.7683 -0.4832 -0.4197
vn -0.5766 -0.4028 -0.7108
vn 0.4734 -0.6863 0.5522
vn 0.4280 -0.8719 0.2378
vn 0.5617 0.8228 -0.0870
vn 0.6446 0.3853 0.6603
vn 0.5218 0.7036 -0.4823
vn -0.8541 0.2452 0.4587
vn -0.9910 0.0865 0.1022
vn 0.0551 -0.6697 -0.7406
vn -0.0787 0.7009 -0.7089
vn 0.9125 -0.3225 0.2517
vn 0.4280 -0.8720 0.2377
vn 0.4733 -0.6864 0.5521
vn -0.2136 -0.4589 0.8625
vn -0.1026 -0.7417 0.6629
vn 0.7039 0.6959 0.1424
vn 0.8897 0.4409 -0.1181
vn 0.2750 -0.6992 -0.6599
vn -0.7484 0.1812 -0.6381
vn -0.1026 -0.7418 0.6628
vn -0.8269 0.4489 -0.3386
vn -0.2136 -0.4590 0.8624
vn 0.7342 -0.6711 -0.1027
vn 0.4734 -0.8283 -0.2997
vn 0.2913 0.8976 -0.3307
vn -0.8206 -0.4656 0.3314
vn -0.0237 0.8119 -0.5833
vn -0.2213 0.0790 0.9720
vn -0.5739 -0.0472 0.8176
vn -0.0788 0.7010 -0.7088
vn 0.4733 -0.8284 -0.2998
vn 0.7343 -0.6711 -0.1026
vn 0.2199 -0.1336 -0.9663
vn -0.0554 -0.3558 -0.9329
vn -0.2128 0.9616 0.1734
vn -0.4178 -0.7094 -0.5676
vn 0.5849 0.2134 -0.7825
vn 0.2614 -0.7606 0.5942
vn -0.5690 0.7744 0.2766
vn 0.7954 -0.2520 0.5513
vn 0.5142 -0.5222 0.6804
vn -0.9003 0.4265 0.0869
vn -0.9815 -0.1570 0.1099
vn -0.8573 -0.2910 0.4247
vn 0.1735 0.9777 -0.1183
vn 0.3880 0.8946 0.2216
vn 0.4666 -0.3796 0.7989
vn 0.5285 -0.6705 -0.5206
vn 0.3078 -0.4814 -0.8207
vn -0.9814 -0.1571 0.1100
vn 0.7185 0.4422 -0.5369
vn 0.5849 0.2135 -0.7825
vn -0.6613 0.6771 0.3228
vn 0.4186 -0.4343 0.7976
vn 0.7185 0.4421 -0.5369
vn -0.0787 0.9054 -0.4173
vn -0.7716 -0.1654 0.6142
vn 0.8436 -0.0315 0.5361
vn -0.7570 -0.6150 0.2208
vn 0.3545 0.5908 0.7247
vn -0.2991 0.5509 -0.7791
vn -0.7898 -0.5055 0.3475
vn 0.3545 0.5908 0.7248
vn -0.1579 0.9867 0.0395
vn 0.8188 -0.2441 0.5196
vn -0.8048 -0.3472 -0.4813
vn 0.1423 -0.2531 -0.9569
vn 0.1978 0.8703 0.4510
vn 0.1022 0.0865 -0.9910
vn -0.9487 -0.2530 0.1898
vn -0.9530 0.2757 0.1260
vn 0.4650 -0.7330 -0.4965
vn 0.8919 -0.3314 -0.3078
vn -0.4121 -0.2060 0.8875
vn -0.2211 -0.4107 -0.8845
vt 0.589996 0.888519
vt 0.589996 0.872742
vt 0.604858 0.888519
vt 0.619751 0.872742
vt 0.634613 0.872742
vt 0.634613 0.888519
vt 0.604858 0.872742
vt 0.619751 0.888519
vt 17.977539 0.550781
vt 17.715820 0.550781
vt 17.977539 0.479492
vt 17.715820 0.479492
vt 11.255859 0.550781
vt 11.569336 0.479492
vt 11.569336 0.550781
vt 17.439453 0.479492
vt 17.439453 0.550781
vt 17.164062 0.479492
vt 17.164062 0.550781
vt 16.886719 0.479492
vt 16.886719 0.550781
vt 16.416992 0.479492
vt 16.416992 0.550781
vt 11.255859 0.479492
vt 15.916016 0.550781
vt 15.916016 0.479492
vt 15.599609 0.550781
vt 15.599609 0.479492
vt 15.280273 0.550781
vt 15.280273 0.479492
vt 10.670898 0.550781
vt 14.931641 0.479492
vt 14.931641 0.550781
vt 14.544922 0.479492
vt 14.544922 0.550781
vt 14.138672 0.479492
vt 14.138672 0.550781
vt 13.723633 0.479492
vt 13.723633 0.550781
vt 13.291992 0.479492
vt 13.291992 0.550781
vt 10.670898 0.479492
vt 12.839844 0.550781
vt 12.839844 0.479492
vt 12.346680 0.550781
vt 12.346680 0.479492
vt 9.986328 0.479492
vt 11.802734 0.479492
vt 11.802734 0.550781
vt 9.986328 0.550781
vt -5.972656 0.479492
vt -5.652344 0.479492
vt -5.972656 0.550781
vt -5.652344 0.550781
vt -5.538086 0.479492
vt -5.538086 0.550781
vt -5.313477 0.479492
vt -5.313477 0.550781
vt -4.879883 0.479492
vt -4.879883 0.550781
vt -4.381836 0.479492
vt -4.381836 0.550781
vt 9.289062 0.479492
vt -3.958008 0.550781
vt -3.958008 0.479492
vt -3.330078 0.550781
vt -3.330078 0.479492
vt -2.764648 0.550781
vt -2.764648 0.479492
vt -2.109375 0.550781
vt -2.109375 0.479492
vt -1.396484 0.550781
vt -1.396484 0.479492
vt 9.289062 0.550781
vt -0.779297 0.479492
vt -0.779297 0.550781
vt -0.241211 0.479492
vt -0.241211 0.550781
vt 0.275391 0.479492
vt 0.275391 0.550781
vt 0.772461 0.479492
vt 0.772461 0.550781
vt 8.535156 0.479492
vt 1.228516 0.550781
vt 1.228516 0.479492
vt 1.680664 0.550781
vt 1.680664 0.479492
vt 2.171875 0.550781
vt 2.171875 0.479492
vt 2.709961 0.550781
vt 2.709961 0.479492
vt 3.299805 0.550781
vt 3.299805 0.479492
vt 8.535156 0.550781
vt 3.955078 0.479492
vt 3.955078 0.550781
vt 4.571289 0.479492
vt 4.571289 0.550781
vt 5.119141 0.479492
vt 5.119141 0.550781
vt 7.764648 0.479492
vt 5.639648 0.550781
vt 5.639648 0.479492
vt 6.175781 0.550781
vt 6.175781 0.479492
vt 6.705078 0.550781
vt 6.705078 0.479492
vt 6.956055 0.550781
vt 6.956055 0.479492
vt 7.206055 0.479492
vt 7.206055 0.550781
vt 7.764648 0.550781
vt 7.522461 0.550781
vt 7.522461 0.479492
vt 0.035187 0.375488
vt 0.035187 0.351410
vt 0.081818 0.375488
vt 0.120697 0.326019
vt 0.175079 0.351410
vt 0.128448 0.351410
vt 0.081818 0.351410
vt 0.128448 0.375488
vt 0.175079 0.375488
vt 0.025818 0.234772
vt 0.025818 0.209595
vt 0.074524 0.234772
vt 0.074524 0.209595
vt 0.123230 0.234772
vt 0.123230 0.209595
vt 0.105896 0.048340
vt 0.160095 0.073639
vt 0.113617 0.073639
vt 0.171967 0.209595
vt 0.171967 0.234772
vt 0.020691 0.097656
vt 0.020691 0.073639
vt 0.067169 0.097656
vt 0.067169 0.073639
vt 0.113617 0.097656
vt 0.160095 0.097656
vt 0.115112 0.183075
vt 0.115906 0.184387
vt 0.170135 0.209717
vt 0.123657 0.209717
vt 0.077179 0.209717
vt 0.030701 0.233704
vt 0.030701 0.209717
vt 0.077179 0.233704
vt 0.123657 0.233704
vt 0.170135 0.233704
s 1
usemtl EVE_Xmas
f 1/1/1 3/2/1 2/3/2
f 117/4/3 120/5/4 119/6/4
f 3/2/1 4/7/2 2/3/2
f 118/8/3 117/4/3 119/6/4
f 4/7/2 5/4/5 2/3/2
f 2/3/2 5/4/5 6/8/5
f 5/4/5 7/5/1 6/8/5
f 6/8/5 7/5/1 8/6/6
f 9/2/7 11/7/8 10/1/9
f 10/1/9 11/7/8 12/3/8
f 114/3/10 117/4/3 118/8/3
f 12/3/8 11/7/8 13/8/11
f 11/7/8 14/4/11 13/8/11
f 116/7/10 117/4/3 114/3/10
f 14/4/11 15/5/12 13/8/11
f 13/8/11 15/5/12 16/6/12
f 17/1/13 19/2/14 18/3/15
f 115/2/16 116/7/10 114/3/10
f 19/2/14 20/7/15 18/3/15
f 113/1/17 115/2/16 114/3/10
f 20/7/15 21/4/18 18/3/15
f 18/3/15 21/4/18 22/8/18
f 21/4/18 23/5/14 22/8/18
f 22/8/18 23/5/14 24/6/14
f 25/2/19 27/7/20 26/1/21
f 26/1/21 27/7/20 28/3/20
f 109/8/22 111/5/23 112/6/24
f 28/3/20 27/7/20 29/8/25
f 27/7/20 30/4/25 29/8/25
f 29/8/25 30/4/25 31/6/21
f 30/4/25 32/5/19 31/6/21
f 33/1/26 35/2/26 34/3/27
f 110/4/28 111/5/23 109/8/22
f 35/2/26 36/7/27 34/3/27
f 107/7/29 110/4/28 109/8/22
f 36/7/27 37/4/30 34/3/27
f 34/3/27 37/4/30 38/8/31
f 108/3/32 107/7/29 109/8/22
f 38/8/31 37/4/30 39/6/26
f 37/4/30 40/5/26 39/6/26
f 41/1/33 43/2/33 42/3/34
f 106/1/35 107/7/29 108/3/32
f 43/2/33 44/7/36 42/3/34
f 105/2/37 107/7/29 106/1/35
f 44/7/36 45/4/38 42/3/34
f 42/3/34 45/4/38 46/8/38
f 45/4/38 47/5/39 46/8/38
f 46/8/38 47/5/39 48/6/39
f 49/1/40 51/2/41 50/3/42
f 102/8/43 103/5/44 104/6/44
f 51/2/41 52/7/42 50/3/42
f 101/4/45 103/5/44 102/8/43
f 52/7/42 53/4/46 50/3/42
f 50/3/42 53/4/46 54/8/46
f 98/3/47 101/4/45 102/8/43
f 54/8/46 53/4/46 55/6/48
f 53/4/46 56/5/40 55/6/48
f 57/2/49 59/7/50 58/1/49
f 58/1/49 59/7/50 60/3/51
f 100/7/47 101/4/45 98/3/47
f 60/3/51 59/7/50 61/8/52
f 59/7/50 62/4/52 61/8/52
f 61/8/52 62/4/52 63/6/53
f 62/4/52 64/5/54 63/6/53
f 65/2/55 67/7/56 66/1/57
f 66/1/57 67/7/56 68/3/56
f 99/2/58 100/7/47 98/3/47
f 68/3/56 67/7/56 69/8/59
f 67/7/56 70/4/60 69/8/59
f 69/8/59 70/4/60 71/6/61
f 70/4/60 72/5/57 71/6/61
f 73/2/62 75/7/63 74/1/62
f 74/1/62 75/7/63 76/3/63
f 97/1/58 99/2/58 98/3/47
f 76/3/63 75/7/63 77/8/64
f 75/7/63 78/4/65 77/8/64
f 77/8/64 78/4/65 79/6/66
f 78/4/65 80/5/66 79/6/66
f 81/1/67 83/2/67 82/3/68
f 93/8/69 95/5/70 96/6/70
f 83/2/67 84/7/71 82/3/68
f 94/4/72 95/5/70 93/8/69
f 84/7/71 85/4/73 82/3/68
f 82/3/68 85/4/73 86/8/73
f 85/4/73 87/5/74 86/8/73
f 86/8/73 87/5/74 88/6/74
f 89/1/70 91/2/75 90/3/76
f 92/7/77 94/4/72 93/8/69
f 91/2/75 92/7/77 90/3/76
f 90/3/76 92/7/77 93/8/69
f 121/9/78 123/10/79 122/11/78
f 122/11/78 123/10/79 124/12/80
f 232/13/81 233/14/82 234/15/82
f 124/12/80 123/10/79 125/16/83
f 123/10/79 126/17/83 125/16/83
f 125/16/83 126/17/83 127/18/84
f 126/17/83 128/19/84 127/18/84
f 127/18/84 128/19/84 129/20/85
f 128/19/84 130/21/85 129/20/85
f 129/20/85 130/21/85 131/22/86
f 130/21/85 132/23/86 131/22/86
f 231/24/81 233/14/82 232/13/81
f 132/23/86 133/25/87 131/22/86
f 131/22/86 133/25/87 134/26/88
f 133/25/87 135/27/87 134/26/88
f 134/26/88 135/27/87 136/28/87
f 135/27/87 137/29/89 136/28/87
f 136/28/87 137/29/89 138/30/89
f 229/31/90 231/24/81 232/13/81
f 138/30/89 137/29/89 139/32/91
f 137/29/89 140/33/91 139/32/91
f 139/32/91 140/33/91 141/34/92
f 140/33/91 142/35/91 141/34/92
f 141/34/92 142/35/91 143/36/93
f 142/35/91 144/37/94 143/36/93
f 143/36/93 144/37/94 145/38/95
f 144/37/94 146/39/95 145/38/95
f 145/38/95 146/39/95 147/40/96
f 146/39/95 148/41/96 147/40/96
f 230/42/90 231/24/81 229/31/90
f 148/41/96 149/43/97 147/40/96
f 147/40/96 149/43/97 150/44/97
f 149/43/97 151/45/98 150/44/97
f 150/44/97 151/45/98 152/46/98
f 228/47/90 230/42/90 229/31/90
f 152/46/98 151/45/98 153/48/99
f 151/45/98 154/49/99 153/48/99
f 227/50/90 228/47/90 229/31/90
f 154/49/99 155/15/100 153/48/99
f 153/48/99 155/15/100 156/14/100
f 157/51/101 159/52/102 158/53/80
f 158/53/80 159/52/102 160/54/102
f 159/52/102 161/55/103 160/54/102
f 160/54/102 161/55/103 162/56/103
f 163/55/104 165/57/105 164/56/106
f 164/56/106 165/57/105 166/58/105
f 165/57/105 167/59/107 166/58/105
f 166/58/105 167/59/107 168/60/108
f 167/59/107 169/61/109 168/60/108
f 168/60/108 169/61/109 170/62/110
f 226/63/111 228/47/90 227/50/90
f 170/62/110 169/61/109 171/64/112
f 169/61/109 172/65/113 171/64/112
f 171/64/112 172/65/113 173/66/112
f 172/65/113 174/67/112 173/66/112
f 173/66/112 174/67/112 175/68/114
f 174/67/112 176/69/114 175/68/114
f 175/68/114 176/69/114 177/70/115
f 176/69/114 178/71/115 177/70/115
f 177/70/115 178/71/115 179/72/116
f 178/71/115 180/73/116 179/72/116
f 225/74/111 226/63/111 227/50/90
f 180/73/116 181/75/117 179/72/116
f 179/72/116 181/75/117 182/76/117
f 181/75/117 183/77/118 182/76/117
f 182/76/117 183/77/118 184/78/118
f 183/77/118 185/79/119 184/78/118
f 184/78/118 185/79/119 186/80/119
f 185/79/119 187/81/120 186/80/119
f 186/80/119 187/81/120 188/82/121
f 224/83/122 226/63/111 225/74/111
f 188/82/121 187/81/120 189/84/123
f 187/81/120 190/85/123 189/84/123
f 189/84/123 190/85/123 191/86/123
f 190/85/123 192/87/123 191/86/123
f 191/86/123 192/87/123 193/88/124
f 192/87/123 194/89/124 193/88/124
f 193/88/124 194/89/124 195/90/125
f 194/89/124 196/91/126 195/90/125
f 195/90/125 196/91/126 197/92/126
f 196/91/126 198/93/125 197/92/126
f 223/94/127 224/83/122 225/74/111
f 198/93/125 199/95/128 197/92/126
f 197/92/126 199/95/128 200/96/128
f 199/95/128 201/97/129 200/96/128
f 200/96/128 201/97/129 202/98/130
f 201/97/129 203/99/129 202/98/130
f 202/98/130 203/99/129 204/100/129
f 222/101/131 224/83/122 223/94/127
f 204/100/129 203/99/129 205/102/132
f 203/99/129 206/103/132 205/102/132
f 205/102/132 206/103/132 207/104/133
f 206/103/132 208/105/133 207/104/133
f 207/104/133 208/105/133 209/106/134
f 208/105/133 210/107/135 209/106/134
f 209/106/134 210/107/135 211/108/136
f 210/107/135 212/109/136 211/108/136
f 213/109/137 215/110/138 214/108/137
f 214/108/137 215/110/138 216/111/139
f 220/112/131 222/101/131 223/94/127
f 216/111/139 215/110/138 217/113/140
f 215/110/138 218/114/140 217/113/140
f 219/113/141 221/114/141 220/112/131
f 221/114/141 222/101/131 220/112/131
f 235/115/142 237/116/143 236/117/144
f 369/118/145 356/119/146 355/120/147
f 237/116/143 238/121/148 236/117/144
f 236/117/144 238/121/148 239/122/149
f 238/121/148 240/120/150 239/122/149
f 353/121/151 369/118/145 355/120/147
f 240/120/150 241/119/152 239/122/149
f 239/122/149 241/119/152 242/123/153
f 243/124/154 245/125/155 244/126/156
f 352/116/146 369/118/145 353/121/151
f 245/125/155 246/127/157 244/126/156
f 244/126/156 246/127/157 247/128/158
f 246/127/157 248/129/159 247/128/158
f 368/130/160 348/131/161 347/132/162
f 248/129/159 249/133/163 247/128/158
f 247/128/158 249/133/163 250/134/164
f 251/135/165 253/136/166 252/137/167
f 252/137/167 253/136/166 254/138/168
f 253/136/166 255/130/169 254/138/168
f 254/138/168 255/130/169 256/132/170
f 255/130/169 257/131/171 256/132/170
f 256/132/170 257/131/171 258/139/172
f 257/131/171 259/140/173 258/139/172
f 260/135/174 262/136/175 261/137/176
f 345/138/177 368/130/160 347/132/162
f 262/136/175 263/138/178 261/137/176
f 261/137/176 263/138/178 264/139/179
f 263/138/178 265/132/180 264/139/179
f 344/136/181 368/130/160 345/138/177
f 265/132/180 266/131/175 264/139/179
f 264/139/179 266/131/175 267/140/174
f 268/124/182 270/125/183 269/126/184
f 367/118/185 340/119/186 339/120/187
f 270/125/183 271/127/188 269/126/184
f 269/126/184 271/127/188 272/128/189
f 271/127/188 273/129/190 272/128/189
f 337/121/191 367/118/185 339/120/187
f 273/129/190 274/133/192 272/128/189
f 272/128/189 274/133/192 275/134/193
f 276/115/194 278/116/195 277/117/196
f 336/116/197 367/118/185 337/121/191
f 278/116/195 279/121/198 277/117/196
f 277/117/196 279/121/198 280/122/199
f 279/121/198 281/120/200 280/122/199
f 366/130/201 332/131/202 331/132/203
f 281/120/200 282/119/204 280/122/199
f 280/122/199 282/119/204 283/123/205
f 284/124/206 286/125/207 285/126/208
f 285/126/208 286/125/207 287/127/209
f 286/125/207 288/141/210 287/127/209
f 287/127/209 288/141/210 289/129/211
f 288/141/210 290/133/212 289/129/211
f 289/129/211 290/133/212 291/128/213
f 290/133/212 292/134/214 291/128/213
f 293/124/215 295/125/216 294/126/217
f 329/138/218 366/130/201 331/132/203
f 295/125/216 296/127/219 294/126/217
f 294/126/217 296/127/219 297/128/220
f 296/127/219 298/129/221 297/128/220
f 328/136/222 366/130/201 329/138/218
f 298/129/221 299/133/223 297/128/220
f 297/128/220 299/133/223 300/134/224
f 301/115/225 303/116/226 302/117/227
f 365/142/228 324/143/229 323/144/230
f 303/116/226 304/121/231 302/117/227
f 302/117/227 304/121/231 305/122/232
f 304/121/231 306/120/233 305/122/232
f 321/145/234 365/142/228 323/144/230
f 306/120/233 307/119/226 305/122/232
f 305/122/232 307/119/226 308/123/225
f 309/124/235 311/125/236 310/126/237
f 310/126/237 311/125/236 312/127/238
f 311/125/236 313/141/239 312/127/238
f 312/127/238 313/141/239 314/129/240
f 313/141/239 315/133/236 314/129/240
f 314/129/240 315/133/236 316/128/241
f 315/133/236 317/134/242 316/128/241
f 318/146/243 320/147/244 319/148/245
f 320/147/244 365/142/228 321/145/234
f 320/147/244 321/145/234 319/148/245
f 319/148/245 321/145/234 322/149/246
f 321/145/234 323/144/230 322/149/246
f 316/128/241 312/127/238 314/129/240
f 323/144/230 324/143/229 322/149/246
f 322/149/246 324/143/229 325/150/247
f 326/135/248 328/136/222 327/137/249
f 310/126/237 312/127/238 316/128/241
f 328/136/222 329/138/218 327/137/249
f 327/137/249 329/138/218 330/139/250
f 329/138/218 331/132/203 330/139/250
f 364/118/251 307/119/226 306/120/233
f 331/132/203 332/131/202 330/139/250
f 330/139/250 332/131/202 333/140/248
f 334/115/252 336/116/197 335/117/253
f 304/121/231 364/118/251 306/120/233
f 336/116/197 337/121/191 335/117/253
f 335/117/253 337/121/191 338/122/254
f 337/121/191 339/120/187 338/122/254
f 303/116/226 364/118/251 304/121/231
f 339/120/187 340/119/186 338/122/254
f 338/122/254 340/119/186 341/123/255
f 342/135/256 344/136/181 343/137/257
f 363/141/258 299/133/223 298/129/221
f 344/136/181 345/138/177 343/137/257
f 343/137/257 345/138/177 346/139/259
f 345/138/177 347/132/162 346/139/259
f 296/127/219 363/141/258 298/129/221
f 347/132/162 348/131/161 346/139/259
f 346/139/259 348/131/161 349/140/256
f 350/115/260 352/116/146 351/117/261
f 295/125/216 363/141/258 296/127/219
f 352/116/146 353/121/151 351/117/261
f 351/117/261 353/121/151 354/122/262
f 353/121/151 355/120/147 354/122/262
f 291/128/213 287/127/209 289/129/211
f 355/120/147 356/119/146 354/122/262
f 354/122/262 356/119/146 357/123/260
f 237/116/143 358/118/263 238/121/148
f 238/121/148 358/118/263 240/120/150
f 358/118/263 241/119/152 240/120/150
f 245/125/155 359/141/264 246/127/157
f 246/127/157 359/141/264 248/129/159
f 359/141/264 249/133/163 248/129/159
f 252/137/167 254/138/168 258/139/172
f 258/139/172 254/138/168 256/132/170
f 262/136/175 360/130/265 263/138/178
f 263/138/178 360/130/265 265/132/180
f 360/130/265 266/131/175 265/132/180
f 270/125/183 361/141/266 271/127/188
f 271/127/188 361/141/266 273/129/190
f 361/141/266 274/133/192 273/129/190
f 278/116/195 362/118/267 279/121/198
f 279/121/198 362/118/267 281/120/200
f 362/118/267 282/119/204 281/120/200
f 285/126/208 287/127/209 291/128/213
